<svg width="513.728" height="254.457" viewBox="0 0 135.924 67.3251" xmlns="http://www.w3.org/2000/svg" xmlns:xlink="http://www.w3.org/1999/xlink" id="svg862" overflow="hidden"><defs id="defs856"></defs><g id="layer1" transform="translate(-27.2881 -57.1752)"><g id="layer1-8" transform="translate(-0.714951 43.5687)"><rect x="-140.829" y="8.22516" rx="3.8052" ry="7.64036" width="31.9614" height="49.8037" id="rect6132-5" stroke="#000000" stroke-width="2.14939" fill="none" transform="matrix(-0.998348 -0.0574505 -0.0574505 0.998348 0 0)"/><rect x="-133.634" y="16.387" rx="3.80519" ry="7.64036" width="16.9331" height="13.1053" id="rect6136-27" stroke="#000000" stroke-width="2.14939" fill="#FFFFFF" transform="matrix(-0.998348 -0.0574505 -0.0574505 0.998348 0 0)"/><path d="M-163.121 44.0275C-164.63 43.9975-165.836 42.6524-165.829 41.0081-165.823 39.3639-164.605 38.0305-163.096 38.0152L-163.071 41.0215Z" id="path6158-3" stroke="#000000" stroke-width="1.44532" fill="#FFFFFF" transform="matrix(-0.998348 -0.0574505 -0.0574505 0.998348 0 0)"/><rect x="-163.095" y="58.3085" width="124.709" height="7.04648" id="rect6038-63" stroke="#000000" stroke-width="2.14759" fill="none" transform="matrix(-0.998348 -0.0574505 -0.0574505 0.998348 0 0)"/><rect x="-162.634" y="24.219" ry="0.0559" width="22.1837" height="20.0581" id="rect6038-6-3" stroke="#000000" stroke-width="1.51375" fill="none" transform="matrix(-0.990059 -0.140656 -0.0233028 0.999728 0 0)"/><ellipse cx="-142.772" cy="64.1246" rx="7.11865" ry="7.21091" id="path3713-3" stroke="#000000" stroke-width="3" fill="#FFFFFF" transform="matrix(-0.998348 -0.0574505 -0.0574505 0.998348 0 0)"/><ellipse cx="-65.7169" cy="62.0271" rx="10.3335" ry="10.3377" id="path3713-0-5" stroke="#000000" stroke-width="4.32776" fill="#FFFFFF" transform="matrix(-0.998389 -0.0567366 -0.0581733 0.998306 0 0)"/><path d="M55.1681 51.9968 48.5899 57.0235 38.7017 56.6476 30.3576 39.3725Z" id="path6161-2" stroke="#000000" stroke-width="2.14939" fill="none"/><rect x="148.902" y="27.4598" ry="0.141741" width="8.25207" height="0.587044" id="rect7592" stroke="#000000" stroke-width="3" fill="none" transform="matrix(0.998348 0.0574505 -0.0574505 0.998348 0 0)"/><rect x="150.753" y="29.385" ry="0.141741" width="1.55915" height="6.07124" id="rect7594" stroke="#000000" stroke-width="3" fill="none" transform="matrix(0.998348 0.0574505 -0.0574505 0.998348 0 0)"/><rect x="152.981" y="32.9799" ry="0.0354353" width="1.46466" height="0.0708705" id="rect7596" stroke="#000000" stroke-width="3" fill="none" transform="matrix(0.998348 0.0574505 -0.0574505 0.998348 0 0)"/><rect x="96.0537" y="53.1629" ry="0.00849292" width="11.1018" height="4.59994" id="rect1435" stroke="#000000" stroke-width="2.5447" fill="none" transform="matrix(0.998533 0.0541496 -0.0297316 0.999558 0 0)"/></g></g></svg>