<svg width="556.792" height="362.031" viewBox="0 0 147.318 95.7875" xmlns="http://www.w3.org/2000/svg" xmlns:xlink="http://www.w3.org/1999/xlink" id="svg8" overflow="hidden"><defs id="defs2"></defs><g id="layer1" transform="translate(-20.9045 -6.30317)"><g id="layer1-8" transform="translate(-11.8997 -182.803)"><rect x="-171.783" y="218.881" rx="3.58695" ry="7.21774" width="30.1283" height="47.0488" id="rect6132-7-7" stroke="#000000" stroke-width="3" fill="none" transform="scale(-1 1)"/><rect x="-165.884" y="227.848" rx="3.80519" ry="7.64036" width="16.9331" height="13.1053" id="rect6136-2-1" stroke="#000000" stroke-width="2.14939" fill="#FFFFFF" transform="scale(-1 1)"/><path d="M-176.691 254.752C-178.2 254.722-179.406 253.377-179.399 251.733-179.393 250.088-178.175 248.755-176.666 248.74L-176.641 251.746Z" id="path6158-1-2" stroke="#000000" stroke-width="1.44532" fill="#FFFFFF" transform="scale(-1 1)"/><rect x="-177.324" y="267.445" width="125.368" height="7.04648" id="rect6038-8-9" stroke="#000000" stroke-width="2.15326" fill-opacity="0" transform="scale(-1 1)"/><rect x="-177.452" y="247.953" ry="0" width="6.26028" height="18.4502" id="rect6038-6-8-1" stroke="#000000" stroke-width="0.862954" transform="scale(-1 1)"/><ellipse cx="-160.98" cy="276.183" rx="7.11865" ry="7.21091" id="path3713-6-7" stroke="#000000" stroke-width="3" fill="#FFFFFF" transform="scale(-1 1)"/><ellipse cx="-75.5564" cy="276.183" rx="7.11865" ry="7.21091" id="path3713-0-1-2" stroke="#000000" stroke-width="3" fill="#FFFFFF" transform="scale(-1 1)"/><rect x="34.2315" y="227.345" ry="2.05679" width="5.25589" height="36.7937" id="rect6454" stroke="#000000" stroke-width="2" fill="#FFFFFF"/><rect x="127.415" y="261.84" width="13.7453" height="5.0453" id="rect6458" stroke="#000000" stroke-width="3.2009"/><path d="M110.27 190.59 125.014 230.711 51.9561 264.8 34.2315 227.345Z" id="path6161-0-0-4" stroke="#000000" stroke-width="2.14939" fill="#FFFFFF"/></g></g></svg>